<svg xmlns="http://www.w3.org/2000/svg" width="12.13" height="12.125" viewBox="0 0 12.13 12.125">
  <defs>
    <style>
      .cls-1 {
        fill: #a9a8a8;
        fill-rule: evenodd;
      }
    </style>
  </defs>
  <path id="search.svg" class="cls-1" d="M1237.04,90.816l3.08,3.1-1.21,1.213-3.08-3.084a5.05,5.05,0,0,1-2.85.906,4.96,4.96,0,1,1,4.97-4.966A4.968,4.968,0,0,1,1237.04,90.816Zm-1.54-.311a3.57,3.57,0,0,0,.94-2.525,3.442,3.442,0,0,0-.94-2.468,3.627,3.627,0,0,0-2.52-1,3.555,3.555,0,0,0-2.5,6A3.659,3.659,0,0,0,1235.5,90.5Z" transform="translate(-1228 -83)"/>
</svg>
