<svg xmlns="http://www.w3.org/2000/svg" width="14" height="11" viewBox="0 0 14 11">
  <defs>
    <style>
      .cls-1 {
        fill: #d7d7d7;
        fill-rule: evenodd;
      }
    </style>
  </defs>
  <path id="twi_icon_grey.svg" class="cls-1" d="M35,2346.3a6.028,6.028,0,0,1-1.65.44,2.794,2.794,0,0,0,1.263-1.54,5.978,5.978,0,0,1-1.824.68,2.917,2.917,0,0,0-2.1-.88,2.825,2.825,0,0,0-2.873,2.78,2.7,2.7,0,0,0,.075.63,8.265,8.265,0,0,1-5.921-2.9,2.7,2.7,0,0,0-.389,1.39,2.762,2.762,0,0,0,1.278,2.32,2.986,2.986,0,0,1-1.3-.35c0,0.01,0,.02,0,0.03a2.812,2.812,0,0,0,2.3,2.73,3.131,3.131,0,0,1-.757.09,2.419,2.419,0,0,1-.541-0.05,2.854,2.854,0,0,0,2.683,1.93,5.859,5.859,0,0,1-3.568,1.19,5.178,5.178,0,0,1-.685-0.04,8.318,8.318,0,0,0,4.4,1.25,7.975,7.975,0,0,0,8.173-7.9q0-.18-0.008-0.36A5.665,5.665,0,0,0,35,2346.3" transform="translate(-21 -2345)"/>
</svg>
